<mxfile host="app.diagrams.net" agent="Mozilla/5.0 (Windows NT 10.0; Win64; x64) AppleWebKit/537.36 (KHTML, like Gecko) Chrome/127.0.0.0 Safari/537.36" version="24.7.6">
  <diagram name="Page-1" id="s6r6Da-3ZymzmyFRftRN">
    <mxGraphModel dx="2636" dy="780" grid="1" gridSize="10" guides="1" tooltips="1" connect="1" arrows="1" fold="1" page="1" pageScale="1" pageWidth="1169" pageHeight="827" background="none" math="0" shadow="0">
      <root>
        <mxCell id="0" />
        <mxCell id="1" parent="0" />
        <mxCell id="DkOP_ufZZWiYerwZRcUN-1" value="Tmedium" style="whiteSpace=wrap;html=1;align=center;" parent="1" vertex="1">
          <mxGeometry x="240" y="200" width="100" height="40" as="geometry" />
        </mxCell>
        <mxCell id="DkOP_ufZZWiYerwZRcUN-2" value="Customers" style="whiteSpace=wrap;html=1;align=center;" parent="1" vertex="1">
          <mxGeometry x="665" y="354" width="100" height="40" as="geometry" />
        </mxCell>
        <mxCell id="DkOP_ufZZWiYerwZRcUN-3" value="Warehouses" style="whiteSpace=wrap;html=1;align=center;" parent="1" vertex="1">
          <mxGeometry x="1405" y="640" width="100" height="40" as="geometry" />
        </mxCell>
        <mxCell id="DkOP_ufZZWiYerwZRcUN-4" value="Products" style="whiteSpace=wrap;html=1;align=center;" parent="1" vertex="1">
          <mxGeometry x="-390" y="830" width="100" height="40" as="geometry" />
        </mxCell>
        <mxCell id="DkOP_ufZZWiYerwZRcUN-5" value="Orders" style="whiteSpace=wrap;html=1;align=center;" parent="1" vertex="1">
          <mxGeometry x="450" y="830" width="100" height="40" as="geometry" />
        </mxCell>
        <mxCell id="DkOP_ufZZWiYerwZRcUN-6" value="Delivery" style="whiteSpace=wrap;html=1;align=center;" parent="1" vertex="1">
          <mxGeometry x="970" y="830" width="100" height="40" as="geometry" />
        </mxCell>
        <mxCell id="DkOP_ufZZWiYerwZRcUN-8" value="R-Zones" style="whiteSpace=wrap;html=1;align=center;" parent="1" vertex="1">
          <mxGeometry x="570" y="1010" width="100" height="40" as="geometry" />
        </mxCell>
        <mxCell id="DkOP_ufZZWiYerwZRcUN-9" value="Weather Data" style="whiteSpace=wrap;html=1;align=center;" parent="1" vertex="1">
          <mxGeometry x="980" y="1000" width="100" height="40" as="geometry" />
        </mxCell>
        <mxCell id="DkOP_ufZZWiYerwZRcUN-23" value="" style="edgeStyle=orthogonalEdgeStyle;rounded=0;orthogonalLoop=1;jettySize=auto;html=1;entryX=0.5;entryY=0;entryDx=0;entryDy=0;endArrow=ERmany;endFill=0;" parent="1" source="DkOP_ufZZWiYerwZRcUN-10" target="DkOP_ufZZWiYerwZRcUN-1" edge="1">
          <mxGeometry relative="1" as="geometry">
            <mxPoint x="150" y="620" as="targetPoint" />
            <Array as="points">
              <mxPoint x="440" y="580" />
              <mxPoint x="440" y="190" />
              <mxPoint x="290" y="190" />
            </Array>
          </mxGeometry>
        </mxCell>
        <mxCell id="DkOP_ufZZWiYerwZRcUN-25" value="" style="edgeStyle=orthogonalEdgeStyle;rounded=0;orthogonalLoop=1;jettySize=auto;html=1;entryX=0.5;entryY=0;entryDx=0;entryDy=0;endArrow=ERmany;endFill=0;" parent="1" source="DkOP_ufZZWiYerwZRcUN-10" target="DkOP_ufZZWiYerwZRcUN-3" edge="1">
          <mxGeometry relative="1" as="geometry">
            <mxPoint x="1030" y="620" as="targetPoint" />
          </mxGeometry>
        </mxCell>
        <mxCell id="DkOP_ufZZWiYerwZRcUN-10" value="has" style="shape=rhombus;perimeter=rhombusPerimeter;whiteSpace=wrap;html=1;align=center;" parent="1" vertex="1">
          <mxGeometry x="540" y="550" width="120" height="60" as="geometry" />
        </mxCell>
        <mxCell id="DkOP_ufZZWiYerwZRcUN-26" value="" style="edgeStyle=orthogonalEdgeStyle;rounded=0;orthogonalLoop=1;jettySize=auto;html=1;endArrow=ERone;endFill=0;" parent="1" source="DkOP_ufZZWiYerwZRcUN-11" target="DkOP_ufZZWiYerwZRcUN-2" edge="1">
          <mxGeometry relative="1" as="geometry" />
        </mxCell>
        <mxCell id="DkOP_ufZZWiYerwZRcUN-27" value="" style="edgeStyle=orthogonalEdgeStyle;rounded=0;orthogonalLoop=1;jettySize=auto;html=1;endArrow=ERmany;endFill=0;" parent="1" source="DkOP_ufZZWiYerwZRcUN-11" target="DkOP_ufZZWiYerwZRcUN-5" edge="1">
          <mxGeometry relative="1" as="geometry" />
        </mxCell>
        <mxCell id="DkOP_ufZZWiYerwZRcUN-11" value="makes" style="shape=rhombus;perimeter=rhombusPerimeter;whiteSpace=wrap;html=1;align=center;" parent="1" vertex="1">
          <mxGeometry x="650" y="800" width="120" height="60" as="geometry" />
        </mxCell>
        <mxCell id="DkOP_ufZZWiYerwZRcUN-30" value="" style="edgeStyle=orthogonalEdgeStyle;rounded=0;orthogonalLoop=1;jettySize=auto;html=1;entryX=1;entryY=0.5;entryDx=0;entryDy=0;endArrow=ERone;endFill=0;" parent="1" source="DkOP_ufZZWiYerwZRcUN-12" target="DkOP_ufZZWiYerwZRcUN-2" edge="1">
          <mxGeometry relative="1" as="geometry" />
        </mxCell>
        <mxCell id="DkOP_ufZZWiYerwZRcUN-32" value="" style="edgeStyle=orthogonalEdgeStyle;rounded=0;orthogonalLoop=1;jettySize=auto;html=1;entryX=0;entryY=0.5;entryDx=0;entryDy=0;endArrow=ERmany;endFill=0;" parent="1" source="DkOP_ufZZWiYerwZRcUN-12" target="DkOP_ufZZWiYerwZRcUN-6" edge="1">
          <mxGeometry relative="1" as="geometry">
            <mxPoint x="970" y="770" as="targetPoint" />
          </mxGeometry>
        </mxCell>
        <mxCell id="DkOP_ufZZWiYerwZRcUN-12" value="makes" style="shape=rhombus;perimeter=rhombusPerimeter;whiteSpace=wrap;html=1;align=center;" parent="1" vertex="1">
          <mxGeometry x="770" y="740" width="120" height="60" as="geometry" />
        </mxCell>
        <mxCell id="DkOP_ufZZWiYerwZRcUN-33" value="" style="edgeStyle=orthogonalEdgeStyle;rounded=0;orthogonalLoop=1;jettySize=auto;html=1;endArrow=ERone;endFill=0;" parent="1" source="DkOP_ufZZWiYerwZRcUN-13" target="DkOP_ufZZWiYerwZRcUN-3" edge="1">
          <mxGeometry relative="1" as="geometry" />
        </mxCell>
        <mxCell id="DkOP_ufZZWiYerwZRcUN-34" value="" style="edgeStyle=orthogonalEdgeStyle;rounded=0;orthogonalLoop=1;jettySize=auto;html=1;endArrow=ERmany;endFill=0;" parent="1" source="DkOP_ufZZWiYerwZRcUN-13" target="DkOP_ufZZWiYerwZRcUN-6" edge="1">
          <mxGeometry relative="1" as="geometry" />
        </mxCell>
        <mxCell id="DkOP_ufZZWiYerwZRcUN-13" value="makes" style="shape=rhombus;perimeter=rhombusPerimeter;whiteSpace=wrap;html=1;align=center;" parent="1" vertex="1">
          <mxGeometry x="960" y="750" width="120" height="60" as="geometry" />
        </mxCell>
        <mxCell id="DkOP_ufZZWiYerwZRcUN-35" value="" style="edgeStyle=orthogonalEdgeStyle;rounded=0;orthogonalLoop=1;jettySize=auto;html=1;endArrow=ERone;endFill=0;" parent="1" source="DkOP_ufZZWiYerwZRcUN-14" target="DkOP_ufZZWiYerwZRcUN-3" edge="1">
          <mxGeometry relative="1" as="geometry" />
        </mxCell>
        <mxCell id="DkOP_ufZZWiYerwZRcUN-36" value="" style="edgeStyle=orthogonalEdgeStyle;rounded=0;orthogonalLoop=1;jettySize=auto;html=1;entryX=0;entryY=0.5;entryDx=0;entryDy=0;endArrow=ERmany;endFill=0;" parent="1" source="DkOP_ufZZWiYerwZRcUN-14" target="DkOP_ufZZWiYerwZRcUN-5" edge="1">
          <mxGeometry relative="1" as="geometry">
            <mxPoint x="540" y="850" as="targetPoint" />
            <Array as="points">
              <mxPoint x="440" y="620" />
              <mxPoint x="440" y="850" />
            </Array>
          </mxGeometry>
        </mxCell>
        <mxCell id="DkOP_ufZZWiYerwZRcUN-14" value="punched" style="shape=rhombus;perimeter=rhombusPerimeter;whiteSpace=wrap;html=1;align=center;" parent="1" vertex="1">
          <mxGeometry x="770" y="590" width="120" height="60" as="geometry" />
        </mxCell>
        <mxCell id="DkOP_ufZZWiYerwZRcUN-38" value="" style="edgeStyle=orthogonalEdgeStyle;rounded=0;orthogonalLoop=1;jettySize=auto;html=1;endArrow=ERmany;endFill=0;" parent="1" source="DkOP_ufZZWiYerwZRcUN-15" target="DkOP_ufZZWiYerwZRcUN-4" edge="1">
          <mxGeometry relative="1" as="geometry" />
        </mxCell>
        <mxCell id="DkOP_ufZZWiYerwZRcUN-42" value="" style="edgeStyle=orthogonalEdgeStyle;rounded=0;orthogonalLoop=1;jettySize=auto;html=1;endArrow=ERmany;endFill=0;entryX=0.75;entryY=0;entryDx=0;entryDy=0;" parent="1" source="DkOP_ufZZWiYerwZRcUN-15" target="DkOP_ufZZWiYerwZRcUN-3" edge="1">
          <mxGeometry relative="1" as="geometry">
            <mxPoint x="1045" y="680" as="targetPoint" />
            <Array as="points">
              <mxPoint x="350" y="520" />
              <mxPoint x="1480" y="520" />
            </Array>
          </mxGeometry>
        </mxCell>
        <mxCell id="DkOP_ufZZWiYerwZRcUN-15" value="in" style="shape=rhombus;perimeter=rhombusPerimeter;whiteSpace=wrap;html=1;align=center;" parent="1" vertex="1">
          <mxGeometry x="250" y="770" width="120" height="60" as="geometry" />
        </mxCell>
        <mxCell id="DkOP_ufZZWiYerwZRcUN-46" value="" style="edgeStyle=orthogonalEdgeStyle;rounded=0;orthogonalLoop=1;jettySize=auto;html=1;endArrow=ERmany;endFill=0;" parent="1" source="DkOP_ufZZWiYerwZRcUN-16" target="DkOP_ufZZWiYerwZRcUN-4" edge="1">
          <mxGeometry relative="1" as="geometry" />
        </mxCell>
        <mxCell id="DkOP_ufZZWiYerwZRcUN-48" value="" style="edgeStyle=orthogonalEdgeStyle;rounded=0;orthogonalLoop=1;jettySize=auto;html=1;entryX=0;entryY=0.75;entryDx=0;entryDy=0;endArrow=ERmany;endFill=0;" parent="1" source="DkOP_ufZZWiYerwZRcUN-16" target="DkOP_ufZZWiYerwZRcUN-5" edge="1">
          <mxGeometry relative="1" as="geometry">
            <mxPoint x="480" y="850" as="targetPoint" />
          </mxGeometry>
        </mxCell>
        <mxCell id="DkOP_ufZZWiYerwZRcUN-16" value="of" style="shape=rhombus;perimeter=rhombusPerimeter;whiteSpace=wrap;html=1;align=center;" parent="1" vertex="1">
          <mxGeometry x="280" y="820" width="120" height="60" as="geometry" />
        </mxCell>
        <mxCell id="DkOP_ufZZWiYerwZRcUN-52" value="" style="edgeStyle=orthogonalEdgeStyle;rounded=0;orthogonalLoop=1;jettySize=auto;html=1;endArrow=ERmany;endFill=0;" parent="1" source="DkOP_ufZZWiYerwZRcUN-18" target="DkOP_ufZZWiYerwZRcUN-8" edge="1">
          <mxGeometry relative="1" as="geometry" />
        </mxCell>
        <mxCell id="DkOP_ufZZWiYerwZRcUN-54" value="" style="edgeStyle=orthogonalEdgeStyle;rounded=0;orthogonalLoop=1;jettySize=auto;html=1;entryX=0;entryY=0.75;entryDx=0;entryDy=0;endArrow=ERone;endFill=0;" parent="1" source="DkOP_ufZZWiYerwZRcUN-18" target="DkOP_ufZZWiYerwZRcUN-6" edge="1">
          <mxGeometry relative="1" as="geometry">
            <mxPoint x="810" y="920" as="targetPoint" />
            <Array as="points">
              <mxPoint x="620" y="1180" />
              <mxPoint x="60" y="1180" />
              <mxPoint x="60" y="880" />
              <mxPoint x="970" y="880" />
            </Array>
          </mxGeometry>
        </mxCell>
        <mxCell id="DkOP_ufZZWiYerwZRcUN-18" value="has" style="shape=rhombus;perimeter=rhombusPerimeter;whiteSpace=wrap;html=1;align=center;" parent="1" vertex="1">
          <mxGeometry x="560" y="1080" width="120" height="60" as="geometry" />
        </mxCell>
        <mxCell id="DkOP_ufZZWiYerwZRcUN-55" value="" style="edgeStyle=orthogonalEdgeStyle;rounded=0;orthogonalLoop=1;jettySize=auto;html=1;endArrow=ERmany;endFill=0;" parent="1" source="DkOP_ufZZWiYerwZRcUN-19" target="DkOP_ufZZWiYerwZRcUN-9" edge="1">
          <mxGeometry relative="1" as="geometry" />
        </mxCell>
        <mxCell id="DkOP_ufZZWiYerwZRcUN-57" value="" style="edgeStyle=orthogonalEdgeStyle;rounded=0;orthogonalLoop=1;jettySize=auto;html=1;endArrow=ERone;endFill=0;" parent="1" source="DkOP_ufZZWiYerwZRcUN-19" edge="1">
          <mxGeometry relative="1" as="geometry">
            <mxPoint x="1060" y="870" as="targetPoint" />
            <Array as="points">
              <mxPoint x="20" y="1230" />
              <mxPoint x="20" y="890" />
              <mxPoint x="1060" y="890" />
            </Array>
          </mxGeometry>
        </mxCell>
        <mxCell id="DkOP_ufZZWiYerwZRcUN-19" value="has" style="shape=rhombus;perimeter=rhombusPerimeter;whiteSpace=wrap;html=1;align=center;" parent="1" vertex="1">
          <mxGeometry x="970" y="1200" width="120" height="60" as="geometry" />
        </mxCell>
        <mxCell id="DkOP_ufZZWiYerwZRcUN-68" value="" style="edgeStyle=orthogonalEdgeStyle;rounded=0;orthogonalLoop=1;jettySize=auto;html=1;endArrow=none;endFill=0;" parent="1" source="DkOP_ufZZWiYerwZRcUN-59" target="DkOP_ufZZWiYerwZRcUN-1" edge="1">
          <mxGeometry relative="1" as="geometry">
            <Array as="points">
              <mxPoint x="230" y="340" />
            </Array>
          </mxGeometry>
        </mxCell>
        <mxCell id="DkOP_ufZZWiYerwZRcUN-59" value="TmediumID" style="ellipse;whiteSpace=wrap;html=1;align=center;fontStyle=4;" parent="1" vertex="1">
          <mxGeometry x="40" y="290" width="100" height="40" as="geometry" />
        </mxCell>
        <mxCell id="DkOP_ufZZWiYerwZRcUN-61" value="Quantity" style="ellipse;whiteSpace=wrap;html=1;align=center;" parent="1" vertex="1">
          <mxGeometry x="40" y="460" width="100" height="40" as="geometry" />
        </mxCell>
        <mxCell id="DkOP_ufZZWiYerwZRcUN-72" style="edgeStyle=orthogonalEdgeStyle;rounded=0;orthogonalLoop=1;jettySize=auto;html=1;entryX=0.5;entryY=1;entryDx=0;entryDy=0;endArrow=none;endFill=0;" parent="1" source="DkOP_ufZZWiYerwZRcUN-62" target="DkOP_ufZZWiYerwZRcUN-1" edge="1">
          <mxGeometry relative="1" as="geometry" />
        </mxCell>
        <mxCell id="DkOP_ufZZWiYerwZRcUN-62" value="Speed" style="ellipse;whiteSpace=wrap;html=1;align=center;" parent="1" vertex="1">
          <mxGeometry x="40" y="420" width="100" height="40" as="geometry" />
        </mxCell>
        <mxCell id="DkOP_ufZZWiYerwZRcUN-63" value="Weightlimit" style="ellipse;whiteSpace=wrap;html=1;align=center;" parent="1" vertex="1">
          <mxGeometry x="40" y="374" width="100" height="40" as="geometry" />
        </mxCell>
        <mxCell id="DkOP_ufZZWiYerwZRcUN-69" style="edgeStyle=orthogonalEdgeStyle;rounded=0;orthogonalLoop=1;jettySize=auto;html=1;entryX=0.163;entryY=1.063;entryDx=0;entryDy=0;entryPerimeter=0;endArrow=none;endFill=0;" parent="1" source="DkOP_ufZZWiYerwZRcUN-65" target="DkOP_ufZZWiYerwZRcUN-1" edge="1">
          <mxGeometry relative="1" as="geometry">
            <mxPoint x="240" y="330" as="targetPoint" />
          </mxGeometry>
        </mxCell>
        <mxCell id="DkOP_ufZZWiYerwZRcUN-65" value="Name" style="ellipse;whiteSpace=wrap;html=1;align=center;" parent="1" vertex="1">
          <mxGeometry x="40" y="330" width="100" height="40" as="geometry" />
        </mxCell>
        <mxCell id="DkOP_ufZZWiYerwZRcUN-71" style="edgeStyle=orthogonalEdgeStyle;rounded=0;orthogonalLoop=1;jettySize=auto;html=1;entryX=0.388;entryY=1.125;entryDx=0;entryDy=0;entryPerimeter=0;endArrow=none;endFill=0;" parent="1" source="DkOP_ufZZWiYerwZRcUN-63" target="DkOP_ufZZWiYerwZRcUN-1" edge="1">
          <mxGeometry relative="1" as="geometry" />
        </mxCell>
        <mxCell id="DkOP_ufZZWiYerwZRcUN-73" style="edgeStyle=orthogonalEdgeStyle;rounded=0;orthogonalLoop=1;jettySize=auto;html=1;entryX=0.625;entryY=1.031;entryDx=0;entryDy=0;entryPerimeter=0;endArrow=none;endFill=0;" parent="1" source="DkOP_ufZZWiYerwZRcUN-61" target="DkOP_ufZZWiYerwZRcUN-1" edge="1">
          <mxGeometry relative="1" as="geometry" />
        </mxCell>
        <mxCell id="DkOP_ufZZWiYerwZRcUN-92" value="" style="edgeStyle=orthogonalEdgeStyle;rounded=0;orthogonalLoop=1;jettySize=auto;html=1;endArrow=none;endFill=0;" parent="1" source="DkOP_ufZZWiYerwZRcUN-89" target="DkOP_ufZZWiYerwZRcUN-2" edge="1">
          <mxGeometry relative="1" as="geometry">
            <Array as="points">
              <mxPoint x="675" y="344" />
              <mxPoint x="675" y="344" />
            </Array>
          </mxGeometry>
        </mxCell>
        <mxCell id="DkOP_ufZZWiYerwZRcUN-89" value="Name" style="ellipse;whiteSpace=wrap;html=1;align=center;" parent="1" vertex="1">
          <mxGeometry x="567.5" y="344" width="60" height="20" as="geometry" />
        </mxCell>
        <mxCell id="DkOP_ufZZWiYerwZRcUN-91" style="edgeStyle=orthogonalEdgeStyle;rounded=0;orthogonalLoop=1;jettySize=auto;html=1;entryX=0.925;entryY=-0.062;entryDx=0;entryDy=0;entryPerimeter=0;endArrow=none;endFill=0;" parent="1" source="DkOP_ufZZWiYerwZRcUN-90" target="DkOP_ufZZWiYerwZRcUN-2" edge="1">
          <mxGeometry relative="1" as="geometry">
            <mxPoint x="665" y="334" as="targetPoint" />
          </mxGeometry>
        </mxCell>
        <mxCell id="DkOP_ufZZWiYerwZRcUN-90" value="Cid" style="ellipse;whiteSpace=wrap;html=1;align=center;fontStyle=4;" parent="1" vertex="1">
          <mxGeometry x="567.5" y="324" width="60" height="20" as="geometry" />
        </mxCell>
        <mxCell id="DkOP_ufZZWiYerwZRcUN-101" style="edgeStyle=orthogonalEdgeStyle;rounded=0;orthogonalLoop=1;jettySize=auto;html=1;entryX=0.25;entryY=0;entryDx=0;entryDy=0;endArrow=none;endFill=0;" parent="1" source="DkOP_ufZZWiYerwZRcUN-96" target="DkOP_ufZZWiYerwZRcUN-3" edge="1">
          <mxGeometry relative="1" as="geometry" />
        </mxCell>
        <mxCell id="DkOP_ufZZWiYerwZRcUN-96" value="WID" style="ellipse;whiteSpace=wrap;html=1;align=center;fontStyle=4;" parent="1" vertex="1">
          <mxGeometry x="1300" y="610" width="60" height="20" as="geometry" />
        </mxCell>
        <mxCell id="B_J6IlAWL3rnMdskP1KE-1" value="ProductID" style="ellipse;whiteSpace=wrap;html=1;align=center;fontStyle=4;" parent="1" vertex="1">
          <mxGeometry x="-500" y="750" width="70" height="20" as="geometry" />
        </mxCell>
        <mxCell id="B_J6IlAWL3rnMdskP1KE-37" style="edgeStyle=orthogonalEdgeStyle;rounded=0;orthogonalLoop=1;jettySize=auto;html=1;entryX=0.25;entryY=0;entryDx=0;entryDy=0;endArrow=none;endFill=0;" parent="1" source="B_J6IlAWL3rnMdskP1KE-2" target="DkOP_ufZZWiYerwZRcUN-4" edge="1">
          <mxGeometry relative="1" as="geometry" />
        </mxCell>
        <mxCell id="B_J6IlAWL3rnMdskP1KE-2" value="name" style="ellipse;whiteSpace=wrap;html=1;align=center;" parent="1" vertex="1">
          <mxGeometry x="-495" y="770" width="60" height="20" as="geometry" />
        </mxCell>
        <mxCell id="B_J6IlAWL3rnMdskP1KE-4" value="fragile" style="ellipse;whiteSpace=wrap;html=1;align=center;" parent="1" vertex="1">
          <mxGeometry x="-627" y="960" width="60" height="20" as="geometry" />
        </mxCell>
        <mxCell id="B_J6IlAWL3rnMdskP1KE-40" style="edgeStyle=orthogonalEdgeStyle;rounded=0;orthogonalLoop=1;jettySize=auto;html=1;entryX=0;entryY=0;entryDx=0;entryDy=0;endArrow=none;endFill=0;" parent="1" source="B_J6IlAWL3rnMdskP1KE-5" target="DkOP_ufZZWiYerwZRcUN-4" edge="1">
          <mxGeometry relative="1" as="geometry" />
        </mxCell>
        <mxCell id="B_J6IlAWL3rnMdskP1KE-5" value="price" style="ellipse;whiteSpace=wrap;html=1;align=center;" parent="1" vertex="1">
          <mxGeometry x="-495" y="810" width="60" height="20" as="geometry" />
        </mxCell>
        <mxCell id="B_J6IlAWL3rnMdskP1KE-41" value="" style="edgeStyle=orthogonalEdgeStyle;rounded=0;orthogonalLoop=1;jettySize=auto;html=1;endArrow=none;endFill=0;" parent="1" source="B_J6IlAWL3rnMdskP1KE-6" target="DkOP_ufZZWiYerwZRcUN-4" edge="1">
          <mxGeometry relative="1" as="geometry" />
        </mxCell>
        <mxCell id="B_J6IlAWL3rnMdskP1KE-6" value="weight" style="ellipse;whiteSpace=wrap;html=1;align=center;" parent="1" vertex="1">
          <mxGeometry x="-495" y="830" width="60" height="20" as="geometry" />
        </mxCell>
        <mxCell id="B_J6IlAWL3rnMdskP1KE-54" style="edgeStyle=orthogonalEdgeStyle;rounded=0;orthogonalLoop=1;jettySize=auto;html=1;endArrow=none;endFill=0;" parent="1" source="B_J6IlAWL3rnMdskP1KE-12" edge="1">
          <mxGeometry relative="1" as="geometry">
            <mxPoint x="549.9999999999998" y="840" as="targetPoint" />
            <Array as="points">
              <mxPoint x="590" y="830" />
              <mxPoint x="551" y="830" />
              <mxPoint x="551" y="840" />
            </Array>
          </mxGeometry>
        </mxCell>
        <mxCell id="B_J6IlAWL3rnMdskP1KE-12" value="OrderID" style="ellipse;whiteSpace=wrap;html=1;align=center;fontStyle=4;" parent="1" vertex="1">
          <mxGeometry x="560" y="790" width="70" height="20" as="geometry" />
        </mxCell>
        <mxCell id="B_J6IlAWL3rnMdskP1KE-55" value="" style="edgeStyle=orthogonalEdgeStyle;rounded=0;orthogonalLoop=1;jettySize=auto;html=1;endArrow=none;endFill=0;" parent="1" source="B_J6IlAWL3rnMdskP1KE-13" target="DkOP_ufZZWiYerwZRcUN-5" edge="1">
          <mxGeometry relative="1" as="geometry" />
        </mxCell>
        <mxCell id="B_J6IlAWL3rnMdskP1KE-13" value="Qauntity" style="ellipse;whiteSpace=wrap;html=1;align=center;" parent="1" vertex="1">
          <mxGeometry x="502.5" y="770" width="60" height="20" as="geometry" />
        </mxCell>
        <mxCell id="B_J6IlAWL3rnMdskP1KE-51" style="edgeStyle=orthogonalEdgeStyle;rounded=0;orthogonalLoop=1;jettySize=auto;html=1;entryX=0.5;entryY=0;entryDx=0;entryDy=0;endArrow=none;endFill=0;" parent="1" source="B_J6IlAWL3rnMdskP1KE-15" target="DkOP_ufZZWiYerwZRcUN-5" edge="1">
          <mxGeometry relative="1" as="geometry" />
        </mxCell>
        <mxCell id="B_J6IlAWL3rnMdskP1KE-15" value="Total price" style="ellipse;whiteSpace=wrap;html=1;align=center;" parent="1" vertex="1">
          <mxGeometry x="442.5" y="790" width="60" height="20" as="geometry" />
        </mxCell>
        <mxCell id="B_J6IlAWL3rnMdskP1KE-57" style="edgeStyle=orthogonalEdgeStyle;rounded=0;orthogonalLoop=1;jettySize=auto;html=1;entryX=0;entryY=0.25;entryDx=0;entryDy=0;endArrow=none;endFill=0;" parent="1" source="B_J6IlAWL3rnMdskP1KE-16" target="DkOP_ufZZWiYerwZRcUN-6" edge="1">
          <mxGeometry relative="1" as="geometry" />
        </mxCell>
        <mxCell id="B_J6IlAWL3rnMdskP1KE-16" value="Delivery ID" style="ellipse;whiteSpace=wrap;html=1;align=center;fontStyle=4;" parent="1" vertex="1">
          <mxGeometry x="840" y="810" width="70" height="20" as="geometry" />
        </mxCell>
        <mxCell id="B_J6IlAWL3rnMdskP1KE-59" style="edgeStyle=orthogonalEdgeStyle;rounded=0;orthogonalLoop=1;jettySize=auto;html=1;endArrow=none;endFill=0;" parent="1" source="B_J6IlAWL3rnMdskP1KE-18" edge="1">
          <mxGeometry relative="1" as="geometry">
            <mxPoint x="970" y="870" as="targetPoint" />
          </mxGeometry>
        </mxCell>
        <mxCell id="B_J6IlAWL3rnMdskP1KE-18" value="d address" style="ellipse;whiteSpace=wrap;html=1;align=center;" parent="1" vertex="1">
          <mxGeometry x="840" y="850" width="60" height="20" as="geometry" />
        </mxCell>
        <mxCell id="B_J6IlAWL3rnMdskP1KE-62" value="" style="edgeStyle=orthogonalEdgeStyle;rounded=0;orthogonalLoop=1;jettySize=auto;html=1;endArrow=none;endFill=0;" parent="1" source="B_J6IlAWL3rnMdskP1KE-19" target="DkOP_ufZZWiYerwZRcUN-6" edge="1">
          <mxGeometry relative="1" as="geometry" />
        </mxCell>
        <mxCell id="B_J6IlAWL3rnMdskP1KE-19" value="deliv date" style="ellipse;whiteSpace=wrap;html=1;align=center;" parent="1" vertex="1">
          <mxGeometry x="1105" y="860" width="60" height="20" as="geometry" />
        </mxCell>
        <mxCell id="B_J6IlAWL3rnMdskP1KE-60" value="" style="edgeStyle=orthogonalEdgeStyle;rounded=0;orthogonalLoop=1;jettySize=auto;html=1;endArrow=none;endFill=0;" parent="1" source="B_J6IlAWL3rnMdskP1KE-20" target="DkOP_ufZZWiYerwZRcUN-13" edge="1">
          <mxGeometry relative="1" as="geometry" />
        </mxCell>
        <mxCell id="B_J6IlAWL3rnMdskP1KE-20" value="d time" style="ellipse;whiteSpace=wrap;html=1;align=center;" parent="1" vertex="1">
          <mxGeometry x="1100" y="815" width="60" height="20" as="geometry" />
        </mxCell>
        <mxCell id="B_J6IlAWL3rnMdskP1KE-66" style="edgeStyle=orthogonalEdgeStyle;rounded=0;orthogonalLoop=1;jettySize=auto;html=1;entryX=0.5;entryY=0;entryDx=0;entryDy=0;endArrow=none;endFill=0;" parent="1" source="B_J6IlAWL3rnMdskP1KE-26" target="DkOP_ufZZWiYerwZRcUN-8" edge="1">
          <mxGeometry relative="1" as="geometry" />
        </mxCell>
        <mxCell id="B_J6IlAWL3rnMdskP1KE-26" value="Zone ID" style="ellipse;whiteSpace=wrap;html=1;align=center;fontStyle=4;" parent="1" vertex="1">
          <mxGeometry x="590" y="960" width="70" height="20" as="geometry" />
        </mxCell>
        <mxCell id="B_J6IlAWL3rnMdskP1KE-64" value="" style="edgeStyle=orthogonalEdgeStyle;rounded=0;orthogonalLoop=1;jettySize=auto;html=1;endArrow=none;endFill=0;" parent="1" source="B_J6IlAWL3rnMdskP1KE-27" target="DkOP_ufZZWiYerwZRcUN-8" edge="1">
          <mxGeometry relative="1" as="geometry" />
        </mxCell>
        <mxCell id="B_J6IlAWL3rnMdskP1KE-27" value="Location" style="ellipse;whiteSpace=wrap;html=1;align=center;" parent="1" vertex="1">
          <mxGeometry x="477.5" y="1020" width="60" height="20" as="geometry" />
        </mxCell>
        <mxCell id="B_J6IlAWL3rnMdskP1KE-43" value="" style="edgeStyle=orthogonalEdgeStyle;rounded=0;orthogonalLoop=1;jettySize=auto;html=1;endArrow=none;endFill=0;" parent="1" source="B_J6IlAWL3rnMdskP1KE-29" target="DkOP_ufZZWiYerwZRcUN-9" edge="1">
          <mxGeometry relative="1" as="geometry" />
        </mxCell>
        <mxCell id="B_J6IlAWL3rnMdskP1KE-29" value="WID" style="ellipse;whiteSpace=wrap;html=1;align=center;fontStyle=4;" parent="1" vertex="1">
          <mxGeometry x="872.5" y="970" width="70" height="20" as="geometry" />
        </mxCell>
        <mxCell id="B_J6IlAWL3rnMdskP1KE-46" value="" style="edgeStyle=orthogonalEdgeStyle;rounded=0;orthogonalLoop=1;jettySize=auto;html=1;endArrow=none;endFill=0;" parent="1" source="B_J6IlAWL3rnMdskP1KE-31" target="DkOP_ufZZWiYerwZRcUN-9" edge="1">
          <mxGeometry relative="1" as="geometry" />
        </mxCell>
        <mxCell id="B_J6IlAWL3rnMdskP1KE-31" value="date" style="ellipse;whiteSpace=wrap;html=1;align=center;" parent="1" vertex="1">
          <mxGeometry x="872.5" y="1010" width="60" height="20" as="geometry" />
        </mxCell>
        <mxCell id="B_J6IlAWL3rnMdskP1KE-50" style="edgeStyle=orthogonalEdgeStyle;rounded=0;orthogonalLoop=1;jettySize=auto;html=1;entryX=0.25;entryY=1;entryDx=0;entryDy=0;endArrow=none;endFill=0;" parent="1" source="B_J6IlAWL3rnMdskP1KE-32" target="DkOP_ufZZWiYerwZRcUN-9" edge="1">
          <mxGeometry relative="1" as="geometry" />
        </mxCell>
        <mxCell id="B_J6IlAWL3rnMdskP1KE-32" value="windspeed" style="ellipse;whiteSpace=wrap;html=1;align=center;" parent="1" vertex="1">
          <mxGeometry x="867.5" y="1080" width="60" height="20" as="geometry" />
        </mxCell>
        <mxCell id="B_J6IlAWL3rnMdskP1KE-48" style="edgeStyle=orthogonalEdgeStyle;rounded=0;orthogonalLoop=1;jettySize=auto;html=1;entryX=0;entryY=0.75;entryDx=0;entryDy=0;endArrow=none;endFill=0;" parent="1" source="B_J6IlAWL3rnMdskP1KE-33" target="DkOP_ufZZWiYerwZRcUN-9" edge="1">
          <mxGeometry relative="1" as="geometry" />
        </mxCell>
        <mxCell id="B_J6IlAWL3rnMdskP1KE-33" value="humidity" style="ellipse;whiteSpace=wrap;html=1;align=center;" parent="1" vertex="1">
          <mxGeometry x="867.5" y="1035" width="60" height="20" as="geometry" />
        </mxCell>
        <mxCell id="B_J6IlAWL3rnMdskP1KE-49" style="edgeStyle=orthogonalEdgeStyle;rounded=0;orthogonalLoop=1;jettySize=auto;html=1;entryX=0;entryY=1;entryDx=0;entryDy=0;endArrow=none;endFill=0;" parent="1" source="B_J6IlAWL3rnMdskP1KE-34" target="DkOP_ufZZWiYerwZRcUN-9" edge="1">
          <mxGeometry relative="1" as="geometry" />
        </mxCell>
        <mxCell id="B_J6IlAWL3rnMdskP1KE-34" value="pressure" style="ellipse;whiteSpace=wrap;html=1;align=center;" parent="1" vertex="1">
          <mxGeometry x="872.5" y="1060" width="60" height="20" as="geometry" />
        </mxCell>
        <mxCell id="B_J6IlAWL3rnMdskP1KE-36" style="edgeStyle=orthogonalEdgeStyle;rounded=0;orthogonalLoop=1;jettySize=auto;html=1;entryX=0.365;entryY=-0.027;entryDx=0;entryDy=0;entryPerimeter=0;endArrow=none;endFill=0;" parent="1" source="B_J6IlAWL3rnMdskP1KE-1" target="DkOP_ufZZWiYerwZRcUN-4" edge="1">
          <mxGeometry relative="1" as="geometry" />
        </mxCell>
        <mxCell id="i_KNE7Ls1RVNBL1iF7ar-5" style="edgeStyle=orthogonalEdgeStyle;rounded=0;orthogonalLoop=1;jettySize=auto;html=1;exitX=0.25;exitY=1;exitDx=0;exitDy=0;entryX=0.5;entryY=0;entryDx=0;entryDy=0;endArrow=none;endFill=0;" parent="1" source="i_KNE7Ls1RVNBL1iF7ar-1" target="i_KNE7Ls1RVNBL1iF7ar-4" edge="1">
          <mxGeometry relative="1" as="geometry" />
        </mxCell>
        <mxCell id="i_KNE7Ls1RVNBL1iF7ar-6" style="edgeStyle=orthogonalEdgeStyle;rounded=0;orthogonalLoop=1;jettySize=auto;html=1;exitX=0.75;exitY=1;exitDx=0;exitDy=0;entryX=0.5;entryY=0;entryDx=0;entryDy=0;endArrow=none;endFill=0;" parent="1" source="i_KNE7Ls1RVNBL1iF7ar-1" target="B_J6IlAWL3rnMdskP1KE-4" edge="1">
          <mxGeometry relative="1" as="geometry" />
        </mxCell>
        <mxCell id="i_KNE7Ls1RVNBL1iF7ar-1" value="Fragile" style="whiteSpace=wrap;html=1;align=center;" parent="1" vertex="1">
          <mxGeometry x="-687" y="890" width="100" height="40" as="geometry" />
        </mxCell>
        <mxCell id="i_KNE7Ls1RVNBL1iF7ar-4" value="FragileID" style="ellipse;whiteSpace=wrap;html=1;align=center;fontStyle=4;" parent="1" vertex="1">
          <mxGeometry x="-717" y="960" width="70" height="20" as="geometry" />
        </mxCell>
        <mxCell id="i_KNE7Ls1RVNBL1iF7ar-7" value="state" style="ellipse;whiteSpace=wrap;html=1;align=center;" parent="1" vertex="1">
          <mxGeometry x="-644.5" y="695" width="60" height="20" as="geometry" />
        </mxCell>
        <mxCell id="i_KNE7Ls1RVNBL1iF7ar-8" style="edgeStyle=orthogonalEdgeStyle;rounded=0;orthogonalLoop=1;jettySize=auto;html=1;exitX=0.25;exitY=1;exitDx=0;exitDy=0;entryX=0.5;entryY=0;entryDx=0;entryDy=0;endArrow=none;endFill=0;" parent="1" source="i_KNE7Ls1RVNBL1iF7ar-10" target="i_KNE7Ls1RVNBL1iF7ar-11" edge="1">
          <mxGeometry relative="1" as="geometry" />
        </mxCell>
        <mxCell id="i_KNE7Ls1RVNBL1iF7ar-9" style="edgeStyle=orthogonalEdgeStyle;rounded=0;orthogonalLoop=1;jettySize=auto;html=1;exitX=0.75;exitY=1;exitDx=0;exitDy=0;entryX=0.5;entryY=0;entryDx=0;entryDy=0;endArrow=none;endFill=0;" parent="1" source="i_KNE7Ls1RVNBL1iF7ar-10" target="i_KNE7Ls1RVNBL1iF7ar-7" edge="1">
          <mxGeometry relative="1" as="geometry" />
        </mxCell>
        <mxCell id="i_KNE7Ls1RVNBL1iF7ar-10" value="State" style="whiteSpace=wrap;html=1;align=center;" parent="1" vertex="1">
          <mxGeometry x="-704.5" y="625" width="100" height="40" as="geometry" />
        </mxCell>
        <mxCell id="i_KNE7Ls1RVNBL1iF7ar-11" value="stateid" style="ellipse;whiteSpace=wrap;html=1;align=center;fontStyle=4;" parent="1" vertex="1">
          <mxGeometry x="-734.5" y="695" width="70" height="20" as="geometry" />
        </mxCell>
        <mxCell id="i_KNE7Ls1RVNBL1iF7ar-17" style="edgeStyle=orthogonalEdgeStyle;rounded=0;orthogonalLoop=1;jettySize=auto;html=1;entryX=1;entryY=0.5;entryDx=0;entryDy=0;endArrow=ERone;endFill=0;" parent="1" source="i_KNE7Ls1RVNBL1iF7ar-13" target="i_KNE7Ls1RVNBL1iF7ar-10" edge="1">
          <mxGeometry relative="1" as="geometry" />
        </mxCell>
        <mxCell id="i_KNE7Ls1RVNBL1iF7ar-13" value="is of" style="rhombus;whiteSpace=wrap;html=1;" parent="1" vertex="1">
          <mxGeometry x="-539.5" y="655" width="80" height="80" as="geometry" />
        </mxCell>
        <mxCell id="i_KNE7Ls1RVNBL1iF7ar-19" style="edgeStyle=orthogonalEdgeStyle;rounded=0;orthogonalLoop=1;jettySize=auto;html=1;entryX=1;entryY=0.5;entryDx=0;entryDy=0;endArrow=ERone;endFill=0;" parent="1" source="i_KNE7Ls1RVNBL1iF7ar-18" target="i_KNE7Ls1RVNBL1iF7ar-1" edge="1">
          <mxGeometry relative="1" as="geometry" />
        </mxCell>
        <mxCell id="i_KNE7Ls1RVNBL1iF7ar-20" style="edgeStyle=orthogonalEdgeStyle;rounded=0;orthogonalLoop=1;jettySize=auto;html=1;entryX=0.5;entryY=1;entryDx=0;entryDy=0;endArrow=ERmany;endFill=0;" parent="1" source="i_KNE7Ls1RVNBL1iF7ar-18" target="DkOP_ufZZWiYerwZRcUN-4" edge="1">
          <mxGeometry relative="1" as="geometry" />
        </mxCell>
        <mxCell id="i_KNE7Ls1RVNBL1iF7ar-18" value="is" style="rhombus;whiteSpace=wrap;html=1;" parent="1" vertex="1">
          <mxGeometry x="-532" y="860" width="80" height="80" as="geometry" />
        </mxCell>
        <mxCell id="i_KNE7Ls1RVNBL1iF7ar-21" style="edgeStyle=orthogonalEdgeStyle;rounded=0;orthogonalLoop=1;jettySize=auto;html=1;entryX=0.42;entryY=0.05;entryDx=0;entryDy=0;entryPerimeter=0;endArrow=ERmany;endFill=0;" parent="1" source="i_KNE7Ls1RVNBL1iF7ar-13" target="DkOP_ufZZWiYerwZRcUN-4" edge="1">
          <mxGeometry relative="1" as="geometry" />
        </mxCell>
        <mxCell id="i_KNE7Ls1RVNBL1iF7ar-22" value="MediumType" style="whiteSpace=wrap;html=1;align=center;" parent="1" vertex="1">
          <mxGeometry x="370" y="50" width="100" height="40" as="geometry" />
        </mxCell>
        <mxCell id="i_KNE7Ls1RVNBL1iF7ar-24" value="" style="edgeStyle=orthogonalEdgeStyle;rounded=0;orthogonalLoop=1;jettySize=auto;html=1;endArrow=none;endFill=0;" parent="1" target="i_KNE7Ls1RVNBL1iF7ar-22" edge="1">
          <mxGeometry relative="1" as="geometry">
            <mxPoint x="518" y="70" as="sourcePoint" />
          </mxGeometry>
        </mxCell>
        <mxCell id="i_KNE7Ls1RVNBL1iF7ar-23" value="TypeID" style="ellipse;whiteSpace=wrap;html=1;align=center;fontStyle=4;" parent="1" vertex="1">
          <mxGeometry x="490" y="50" width="100" height="40" as="geometry" />
        </mxCell>
        <mxCell id="i_KNE7Ls1RVNBL1iF7ar-26" value="" style="edgeStyle=orthogonalEdgeStyle;rounded=0;orthogonalLoop=1;jettySize=auto;html=1;endArrow=none;endFill=0;" parent="1" source="i_KNE7Ls1RVNBL1iF7ar-25" target="i_KNE7Ls1RVNBL1iF7ar-22" edge="1">
          <mxGeometry relative="1" as="geometry" />
        </mxCell>
        <mxCell id="i_KNE7Ls1RVNBL1iF7ar-25" value="Type" style="ellipse;whiteSpace=wrap;html=1;align=center;" parent="1" vertex="1">
          <mxGeometry x="370" width="100" height="40" as="geometry" />
        </mxCell>
        <mxCell id="i_KNE7Ls1RVNBL1iF7ar-36" style="edgeStyle=orthogonalEdgeStyle;rounded=0;orthogonalLoop=1;jettySize=auto;html=1;entryX=0.25;entryY=0;entryDx=0;entryDy=0;endArrow=ERmany;endFill=0;" parent="1" source="i_KNE7Ls1RVNBL1iF7ar-35" target="DkOP_ufZZWiYerwZRcUN-1" edge="1">
          <mxGeometry relative="1" as="geometry" />
        </mxCell>
        <mxCell id="i_KNE7Ls1RVNBL1iF7ar-37" style="edgeStyle=orthogonalEdgeStyle;rounded=0;orthogonalLoop=1;jettySize=auto;html=1;entryX=0;entryY=0.5;entryDx=0;entryDy=0;endArrow=ERone;endFill=0;" parent="1" source="i_KNE7Ls1RVNBL1iF7ar-35" target="i_KNE7Ls1RVNBL1iF7ar-22" edge="1">
          <mxGeometry relative="1" as="geometry" />
        </mxCell>
        <mxCell id="i_KNE7Ls1RVNBL1iF7ar-35" value="is" style="rhombus;whiteSpace=wrap;html=1;" parent="1" vertex="1">
          <mxGeometry x="240" y="70" width="80" height="80" as="geometry" />
        </mxCell>
        <mxCell id="i_KNE7Ls1RVNBL1iF7ar-42" value="" style="edgeStyle=orthogonalEdgeStyle;rounded=0;orthogonalLoop=1;jettySize=auto;html=1;" parent="1" source="i_KNE7Ls1RVNBL1iF7ar-39" target="i_KNE7Ls1RVNBL1iF7ar-41" edge="1">
          <mxGeometry relative="1" as="geometry" />
        </mxCell>
        <mxCell id="i_KNE7Ls1RVNBL1iF7ar-39" value="Cnic" style="ellipse;whiteSpace=wrap;html=1;align=center;" parent="1" vertex="1">
          <mxGeometry x="887.5" y="324" width="45" height="20" as="geometry" />
        </mxCell>
        <mxCell id="i_KNE7Ls1RVNBL1iF7ar-41" value="CCnic" style="whiteSpace=wrap;html=1;align=center;" parent="1" vertex="1">
          <mxGeometry x="832.5" y="270" width="100" height="40" as="geometry" />
        </mxCell>
        <mxCell id="i_KNE7Ls1RVNBL1iF7ar-48" value="" style="edgeStyle=orthogonalEdgeStyle;rounded=0;orthogonalLoop=1;jettySize=auto;html=1;endArrow=none;endFill=0;" parent="1" source="i_KNE7Ls1RVNBL1iF7ar-43" target="i_KNE7Ls1RVNBL1iF7ar-41" edge="1">
          <mxGeometry relative="1" as="geometry" />
        </mxCell>
        <mxCell id="i_KNE7Ls1RVNBL1iF7ar-43" value="CnicID" style="ellipse;whiteSpace=wrap;html=1;align=center;fontStyle=4;" parent="1" vertex="1">
          <mxGeometry x="830" y="334" width="60" height="20" as="geometry" />
        </mxCell>
        <mxCell id="i_KNE7Ls1RVNBL1iF7ar-49" value="" style="edgeStyle=orthogonalEdgeStyle;rounded=0;orthogonalLoop=1;jettySize=auto;html=1;" parent="1" source="i_KNE7Ls1RVNBL1iF7ar-50" target="i_KNE7Ls1RVNBL1iF7ar-51" edge="1">
          <mxGeometry relative="1" as="geometry" />
        </mxCell>
        <mxCell id="i_KNE7Ls1RVNBL1iF7ar-50" value="Email" style="ellipse;whiteSpace=wrap;html=1;align=center;" parent="1" vertex="1">
          <mxGeometry x="577.5" y="458" width="45" height="20" as="geometry" />
        </mxCell>
        <mxCell id="i_KNE7Ls1RVNBL1iF7ar-51" value="CEmail" style="whiteSpace=wrap;html=1;align=center;" parent="1" vertex="1">
          <mxGeometry x="522.5" y="404" width="100" height="40" as="geometry" />
        </mxCell>
        <mxCell id="i_KNE7Ls1RVNBL1iF7ar-52" value="" style="edgeStyle=orthogonalEdgeStyle;rounded=0;orthogonalLoop=1;jettySize=auto;html=1;" parent="1" source="i_KNE7Ls1RVNBL1iF7ar-53" target="i_KNE7Ls1RVNBL1iF7ar-51" edge="1">
          <mxGeometry relative="1" as="geometry" />
        </mxCell>
        <mxCell id="i_KNE7Ls1RVNBL1iF7ar-53" value="EmailID" style="ellipse;whiteSpace=wrap;html=1;align=center;fontStyle=4;" parent="1" vertex="1">
          <mxGeometry x="520" y="468" width="60" height="20" as="geometry" />
        </mxCell>
        <mxCell id="i_KNE7Ls1RVNBL1iF7ar-57" style="edgeStyle=orthogonalEdgeStyle;rounded=0;orthogonalLoop=1;jettySize=auto;html=1;entryX=1;entryY=0;entryDx=0;entryDy=0;endArrow=ERone;endFill=0;" parent="1" source="i_KNE7Ls1RVNBL1iF7ar-54" target="DkOP_ufZZWiYerwZRcUN-2" edge="1">
          <mxGeometry relative="1" as="geometry" />
        </mxCell>
        <mxCell id="i_KNE7Ls1RVNBL1iF7ar-54" value="has" style="rhombus;whiteSpace=wrap;html=1;" parent="1" vertex="1">
          <mxGeometry x="770" y="280" width="30" height="30" as="geometry" />
        </mxCell>
        <mxCell id="i_KNE7Ls1RVNBL1iF7ar-59" style="edgeStyle=orthogonalEdgeStyle;rounded=0;orthogonalLoop=1;jettySize=auto;html=1;entryX=1;entryY=0.5;entryDx=0;entryDy=0;endArrow=ERone;endFill=0;" parent="1" source="i_KNE7Ls1RVNBL1iF7ar-55" target="i_KNE7Ls1RVNBL1iF7ar-51" edge="1">
          <mxGeometry relative="1" as="geometry" />
        </mxCell>
        <mxCell id="i_KNE7Ls1RVNBL1iF7ar-55" value="has" style="rhombus;whiteSpace=wrap;html=1;" parent="1" vertex="1">
          <mxGeometry x="665" y="438" width="30" height="30" as="geometry" />
        </mxCell>
        <mxCell id="i_KNE7Ls1RVNBL1iF7ar-56" style="edgeStyle=orthogonalEdgeStyle;rounded=0;orthogonalLoop=1;jettySize=auto;html=1;entryX=0.001;entryY=0.656;entryDx=0;entryDy=0;entryPerimeter=0;endArrow=ERone;endFill=0;" parent="1" source="i_KNE7Ls1RVNBL1iF7ar-54" target="i_KNE7Ls1RVNBL1iF7ar-41" edge="1">
          <mxGeometry relative="1" as="geometry" />
        </mxCell>
        <mxCell id="i_KNE7Ls1RVNBL1iF7ar-62" style="edgeStyle=orthogonalEdgeStyle;rounded=0;orthogonalLoop=1;jettySize=auto;html=1;entryX=0.148;entryY=0.944;entryDx=0;entryDy=0;entryPerimeter=0;endArrow=ERone;endFill=0;" parent="1" source="i_KNE7Ls1RVNBL1iF7ar-55" target="DkOP_ufZZWiYerwZRcUN-2" edge="1">
          <mxGeometry relative="1" as="geometry" />
        </mxCell>
        <mxCell id="i_KNE7Ls1RVNBL1iF7ar-63" value="Phone" style="whiteSpace=wrap;html=1;align=center;" parent="1" vertex="1">
          <mxGeometry x="900" y="436" width="57.5" height="24" as="geometry" />
        </mxCell>
        <mxCell id="i_KNE7Ls1RVNBL1iF7ar-65" value="" style="edgeStyle=orthogonalEdgeStyle;rounded=0;orthogonalLoop=1;jettySize=auto;html=1;endArrow=ERmany;endFill=0;" parent="1" source="i_KNE7Ls1RVNBL1iF7ar-64" target="i_KNE7Ls1RVNBL1iF7ar-63" edge="1">
          <mxGeometry relative="1" as="geometry" />
        </mxCell>
        <mxCell id="i_KNE7Ls1RVNBL1iF7ar-66" style="edgeStyle=orthogonalEdgeStyle;rounded=0;orthogonalLoop=1;jettySize=auto;html=1;entryX=1;entryY=0.25;entryDx=0;entryDy=0;endArrow=ERone;endFill=0;" parent="1" source="i_KNE7Ls1RVNBL1iF7ar-64" target="DkOP_ufZZWiYerwZRcUN-2" edge="1">
          <mxGeometry relative="1" as="geometry" />
        </mxCell>
        <mxCell id="i_KNE7Ls1RVNBL1iF7ar-64" value="has" style="rhombus;whiteSpace=wrap;html=1;" parent="1" vertex="1">
          <mxGeometry x="905" y="379" width="30" height="30" as="geometry" />
        </mxCell>
        <mxCell id="i_KNE7Ls1RVNBL1iF7ar-71" style="edgeStyle=orthogonalEdgeStyle;rounded=0;orthogonalLoop=1;jettySize=auto;html=1;entryX=0;entryY=0.5;entryDx=0;entryDy=0;endArrow=none;endFill=0;" parent="1" source="i_KNE7Ls1RVNBL1iF7ar-67" target="i_KNE7Ls1RVNBL1iF7ar-63" edge="1">
          <mxGeometry relative="1" as="geometry" />
        </mxCell>
        <mxCell id="i_KNE7Ls1RVNBL1iF7ar-67" value="PhoneID" style="ellipse;whiteSpace=wrap;html=1;align=center;fontStyle=4;" parent="1" vertex="1">
          <mxGeometry x="817.5" y="440" width="60" height="20" as="geometry" />
        </mxCell>
        <mxCell id="i_KNE7Ls1RVNBL1iF7ar-70" style="edgeStyle=orthogonalEdgeStyle;rounded=0;orthogonalLoop=1;jettySize=auto;html=1;entryX=0.5;entryY=1;entryDx=0;entryDy=0;endArrow=none;endFill=0;" parent="1" source="i_KNE7Ls1RVNBL1iF7ar-68" target="i_KNE7Ls1RVNBL1iF7ar-63" edge="1">
          <mxGeometry relative="1" as="geometry" />
        </mxCell>
        <mxCell id="i_KNE7Ls1RVNBL1iF7ar-68" value="Phone" style="ellipse;whiteSpace=wrap;html=1;align=center;" parent="1" vertex="1">
          <mxGeometry x="905" y="488" width="45" height="20" as="geometry" />
        </mxCell>
        <mxCell id="i_KNE7Ls1RVNBL1iF7ar-73" style="edgeStyle=orthogonalEdgeStyle;rounded=0;orthogonalLoop=1;jettySize=auto;html=1;entryX=0;entryY=0.25;entryDx=0;entryDy=0;endArrow=none;endFill=0;" parent="1" source="i_KNE7Ls1RVNBL1iF7ar-72" target="DkOP_ufZZWiYerwZRcUN-3" edge="1">
          <mxGeometry relative="1" as="geometry" />
        </mxCell>
        <mxCell id="i_KNE7Ls1RVNBL1iF7ar-72" value="Name" style="ellipse;whiteSpace=wrap;html=1;align=center;" parent="1" vertex="1">
          <mxGeometry x="1307.5" y="635" width="45" height="20" as="geometry" />
        </mxCell>
        <mxCell id="i_KNE7Ls1RVNBL1iF7ar-74" value="WarehousePostal" style="whiteSpace=wrap;html=1;align=center;" parent="1" vertex="1">
          <mxGeometry x="1615" y="513.75" width="100" height="40" as="geometry" />
        </mxCell>
        <mxCell id="i_KNE7Ls1RVNBL1iF7ar-75" value="Warehouselocation" style="whiteSpace=wrap;html=1;align=center;" parent="1" vertex="1">
          <mxGeometry x="1602.5" y="637.5" width="110" height="40" as="geometry" />
        </mxCell>
        <mxCell id="i_KNE7Ls1RVNBL1iF7ar-76" value="WarehousePhone" style="whiteSpace=wrap;html=1;align=center;" parent="1" vertex="1">
          <mxGeometry x="1610" y="738.75" width="110" height="40" as="geometry" />
        </mxCell>
        <mxCell id="i_KNE7Ls1RVNBL1iF7ar-83" style="edgeStyle=orthogonalEdgeStyle;rounded=0;orthogonalLoop=1;jettySize=auto;html=1;entryX=1;entryY=0.25;entryDx=0;entryDy=0;endArrow=none;endFill=0;" parent="1" source="i_KNE7Ls1RVNBL1iF7ar-77" target="i_KNE7Ls1RVNBL1iF7ar-74" edge="1">
          <mxGeometry relative="1" as="geometry" />
        </mxCell>
        <mxCell id="i_KNE7Ls1RVNBL1iF7ar-77" value="Postalid" style="ellipse;whiteSpace=wrap;html=1;align=center;fontStyle=4;" parent="1" vertex="1">
          <mxGeometry x="1770" y="503.75" width="60" height="20" as="geometry" />
        </mxCell>
        <mxCell id="i_KNE7Ls1RVNBL1iF7ar-84" style="edgeStyle=orthogonalEdgeStyle;rounded=0;orthogonalLoop=1;jettySize=auto;html=1;entryX=1;entryY=0.5;entryDx=0;entryDy=0;endArrow=none;endFill=0;" parent="1" source="i_KNE7Ls1RVNBL1iF7ar-78" target="i_KNE7Ls1RVNBL1iF7ar-74" edge="1">
          <mxGeometry relative="1" as="geometry" />
        </mxCell>
        <mxCell id="i_KNE7Ls1RVNBL1iF7ar-78" value="Postal" style="ellipse;whiteSpace=wrap;html=1;align=center;" parent="1" vertex="1">
          <mxGeometry x="1777.5" y="528.75" width="45" height="20" as="geometry" />
        </mxCell>
        <mxCell id="i_KNE7Ls1RVNBL1iF7ar-85" style="edgeStyle=orthogonalEdgeStyle;rounded=0;orthogonalLoop=1;jettySize=auto;html=1;entryX=1;entryY=0.25;entryDx=0;entryDy=0;endArrow=none;endFill=0;" parent="1" source="i_KNE7Ls1RVNBL1iF7ar-79" target="i_KNE7Ls1RVNBL1iF7ar-75" edge="1">
          <mxGeometry relative="1" as="geometry" />
        </mxCell>
        <mxCell id="i_KNE7Ls1RVNBL1iF7ar-79" value="LocationID" style="ellipse;whiteSpace=wrap;html=1;align=center;fontStyle=4;" parent="1" vertex="1">
          <mxGeometry x="1762.5" y="635" width="60" height="20" as="geometry" />
        </mxCell>
        <mxCell id="i_KNE7Ls1RVNBL1iF7ar-86" style="edgeStyle=orthogonalEdgeStyle;rounded=0;orthogonalLoop=1;jettySize=auto;html=1;entryX=1;entryY=0.75;entryDx=0;entryDy=0;endArrow=none;endFill=0;" parent="1" source="i_KNE7Ls1RVNBL1iF7ar-80" target="i_KNE7Ls1RVNBL1iF7ar-75" edge="1">
          <mxGeometry relative="1" as="geometry" />
        </mxCell>
        <mxCell id="i_KNE7Ls1RVNBL1iF7ar-80" value="Location" style="ellipse;whiteSpace=wrap;html=1;align=center;" parent="1" vertex="1">
          <mxGeometry x="1770" y="660" width="45" height="20" as="geometry" />
        </mxCell>
        <mxCell id="i_KNE7Ls1RVNBL1iF7ar-87" style="edgeStyle=orthogonalEdgeStyle;rounded=0;orthogonalLoop=1;jettySize=auto;html=1;entryX=1;entryY=0.25;entryDx=0;entryDy=0;endArrow=none;endFill=0;" parent="1" source="i_KNE7Ls1RVNBL1iF7ar-81" target="i_KNE7Ls1RVNBL1iF7ar-76" edge="1">
          <mxGeometry relative="1" as="geometry" />
        </mxCell>
        <mxCell id="i_KNE7Ls1RVNBL1iF7ar-81" value="WphoneID" style="ellipse;whiteSpace=wrap;html=1;align=center;fontStyle=4;" parent="1" vertex="1">
          <mxGeometry x="1762.5" y="741.25" width="60" height="20" as="geometry" />
        </mxCell>
        <mxCell id="i_KNE7Ls1RVNBL1iF7ar-88" style="edgeStyle=orthogonalEdgeStyle;rounded=0;orthogonalLoop=1;jettySize=auto;html=1;entryX=1;entryY=0.75;entryDx=0;entryDy=0;endArrow=none;endFill=0;" parent="1" source="i_KNE7Ls1RVNBL1iF7ar-82" target="i_KNE7Ls1RVNBL1iF7ar-76" edge="1">
          <mxGeometry relative="1" as="geometry" />
        </mxCell>
        <mxCell id="i_KNE7Ls1RVNBL1iF7ar-82" value="Phone" style="ellipse;whiteSpace=wrap;html=1;align=center;" parent="1" vertex="1">
          <mxGeometry x="1770" y="766.25" width="45" height="20" as="geometry" />
        </mxCell>
        <mxCell id="i_KNE7Ls1RVNBL1iF7ar-92" style="edgeStyle=orthogonalEdgeStyle;rounded=0;orthogonalLoop=1;jettySize=auto;html=1;entryX=0;entryY=0.5;entryDx=0;entryDy=0;endArrow=ERone;endFill=0;" parent="1" source="i_KNE7Ls1RVNBL1iF7ar-89" target="i_KNE7Ls1RVNBL1iF7ar-74" edge="1">
          <mxGeometry relative="1" as="geometry" />
        </mxCell>
        <mxCell id="i_KNE7Ls1RVNBL1iF7ar-93" style="edgeStyle=orthogonalEdgeStyle;rounded=0;orthogonalLoop=1;jettySize=auto;html=1;entryX=1;entryY=0.25;entryDx=0;entryDy=0;endArrow=ERone;endFill=0;" parent="1" source="i_KNE7Ls1RVNBL1iF7ar-89" target="DkOP_ufZZWiYerwZRcUN-3" edge="1">
          <mxGeometry relative="1" as="geometry" />
        </mxCell>
        <mxCell id="i_KNE7Ls1RVNBL1iF7ar-89" value="" style="rhombus;whiteSpace=wrap;html=1;" parent="1" vertex="1">
          <mxGeometry x="1560" y="525" width="20" height="20" as="geometry" />
        </mxCell>
        <mxCell id="i_KNE7Ls1RVNBL1iF7ar-94" style="edgeStyle=orthogonalEdgeStyle;rounded=0;orthogonalLoop=1;jettySize=auto;html=1;entryX=0;entryY=0.5;entryDx=0;entryDy=0;endArrow=ERone;endFill=0;" parent="1" source="i_KNE7Ls1RVNBL1iF7ar-90" target="i_KNE7Ls1RVNBL1iF7ar-75" edge="1">
          <mxGeometry relative="1" as="geometry" />
        </mxCell>
        <mxCell id="i_KNE7Ls1RVNBL1iF7ar-96" style="edgeStyle=orthogonalEdgeStyle;rounded=0;orthogonalLoop=1;jettySize=auto;html=1;entryX=1;entryY=0.5;entryDx=0;entryDy=0;endArrow=ERone;endFill=0;" parent="1" source="i_KNE7Ls1RVNBL1iF7ar-90" target="DkOP_ufZZWiYerwZRcUN-3" edge="1">
          <mxGeometry relative="1" as="geometry" />
        </mxCell>
        <mxCell id="i_KNE7Ls1RVNBL1iF7ar-90" value="" style="rhombus;whiteSpace=wrap;html=1;" parent="1" vertex="1">
          <mxGeometry x="1542.5" y="652.5" width="20" height="20" as="geometry" />
        </mxCell>
        <mxCell id="i_KNE7Ls1RVNBL1iF7ar-97" style="edgeStyle=orthogonalEdgeStyle;rounded=0;orthogonalLoop=1;jettySize=auto;html=1;entryX=1;entryY=0.75;entryDx=0;entryDy=0;endArrow=ERone;endFill=0;" parent="1" source="i_KNE7Ls1RVNBL1iF7ar-91" target="DkOP_ufZZWiYerwZRcUN-3" edge="1">
          <mxGeometry relative="1" as="geometry" />
        </mxCell>
        <mxCell id="i_KNE7Ls1RVNBL1iF7ar-98" style="edgeStyle=orthogonalEdgeStyle;rounded=0;orthogonalLoop=1;jettySize=auto;html=1;entryX=0;entryY=0.5;entryDx=0;entryDy=0;endArrow=ERmany;endFill=0;" parent="1" source="i_KNE7Ls1RVNBL1iF7ar-91" target="i_KNE7Ls1RVNBL1iF7ar-76" edge="1">
          <mxGeometry relative="1" as="geometry" />
        </mxCell>
        <mxCell id="i_KNE7Ls1RVNBL1iF7ar-91" value="" style="rhombus;whiteSpace=wrap;html=1;" parent="1" vertex="1">
          <mxGeometry x="1570" y="750" width="20" height="20" as="geometry" />
        </mxCell>
        <mxCell id="i_KNE7Ls1RVNBL1iF7ar-99" value="Deliverystatus" style="whiteSpace=wrap;html=1;align=center;" parent="1" vertex="1">
          <mxGeometry x="1235" y="900" width="100" height="40" as="geometry" />
        </mxCell>
        <mxCell id="i_KNE7Ls1RVNBL1iF7ar-102" style="edgeStyle=orthogonalEdgeStyle;rounded=0;orthogonalLoop=1;jettySize=auto;html=1;entryX=1;entryY=0.5;entryDx=0;entryDy=0;endArrow=ERone;endFill=0;" parent="1" source="i_KNE7Ls1RVNBL1iF7ar-100" target="i_KNE7Ls1RVNBL1iF7ar-99" edge="1">
          <mxGeometry relative="1" as="geometry" />
        </mxCell>
        <mxCell id="VaWH-QKxtk6Y6nCNRCNH-2" style="edgeStyle=orthogonalEdgeStyle;rounded=0;orthogonalLoop=1;jettySize=auto;html=1;entryX=1;entryY=0.25;entryDx=0;entryDy=0;endArrow=ERmany;endFill=0;" edge="1" parent="1" source="i_KNE7Ls1RVNBL1iF7ar-100" target="DkOP_ufZZWiYerwZRcUN-6">
          <mxGeometry relative="1" as="geometry">
            <Array as="points">
              <mxPoint x="1410" y="920" />
              <mxPoint x="1410" y="840" />
            </Array>
          </mxGeometry>
        </mxCell>
        <mxCell id="i_KNE7Ls1RVNBL1iF7ar-100" value="" style="rhombus;whiteSpace=wrap;html=1;" parent="1" vertex="1">
          <mxGeometry x="1385" y="910" width="20" height="20" as="geometry" />
        </mxCell>
        <mxCell id="i_KNE7Ls1RVNBL1iF7ar-105" style="edgeStyle=orthogonalEdgeStyle;rounded=0;orthogonalLoop=1;jettySize=auto;html=1;entryX=0;entryY=0.25;entryDx=0;entryDy=0;endArrow=none;endFill=0;" parent="1" source="i_KNE7Ls1RVNBL1iF7ar-103" target="i_KNE7Ls1RVNBL1iF7ar-99" edge="1">
          <mxGeometry relative="1" as="geometry" />
        </mxCell>
        <mxCell id="i_KNE7Ls1RVNBL1iF7ar-103" value="Status ID" style="ellipse;whiteSpace=wrap;html=1;align=center;fontStyle=4;" parent="1" vertex="1">
          <mxGeometry x="1155" y="900" width="70" height="20" as="geometry" />
        </mxCell>
        <mxCell id="i_KNE7Ls1RVNBL1iF7ar-106" style="edgeStyle=orthogonalEdgeStyle;rounded=0;orthogonalLoop=1;jettySize=auto;html=1;entryX=0;entryY=0.75;entryDx=0;entryDy=0;endArrow=none;endFill=0;" parent="1" source="i_KNE7Ls1RVNBL1iF7ar-104" target="i_KNE7Ls1RVNBL1iF7ar-99" edge="1">
          <mxGeometry relative="1" as="geometry" />
        </mxCell>
        <mxCell id="i_KNE7Ls1RVNBL1iF7ar-104" value="Status" style="ellipse;whiteSpace=wrap;html=1;align=center;" parent="1" vertex="1">
          <mxGeometry x="1160" y="920" width="60" height="20" as="geometry" />
        </mxCell>
        <mxCell id="i_KNE7Ls1RVNBL1iF7ar-110" style="edgeStyle=orthogonalEdgeStyle;rounded=0;orthogonalLoop=1;jettySize=auto;html=1;entryX=1;entryY=0.75;entryDx=0;entryDy=0;endArrow=none;endFill=0;" parent="1" source="i_KNE7Ls1RVNBL1iF7ar-107" target="i_KNE7Ls1RVNBL1iF7ar-108" edge="1">
          <mxGeometry relative="1" as="geometry" />
        </mxCell>
        <mxCell id="i_KNE7Ls1RVNBL1iF7ar-107" value="Weather" style="ellipse;whiteSpace=wrap;html=1;align=center;" parent="1" vertex="1">
          <mxGeometry x="1392.5" y="1035" width="60" height="20" as="geometry" />
        </mxCell>
        <mxCell id="i_KNE7Ls1RVNBL1iF7ar-108" value="Weather Type" style="whiteSpace=wrap;html=1;align=center;" parent="1" vertex="1">
          <mxGeometry x="1230" y="1005" width="100" height="40" as="geometry" />
        </mxCell>
        <mxCell id="i_KNE7Ls1RVNBL1iF7ar-112" style="edgeStyle=orthogonalEdgeStyle;rounded=0;orthogonalLoop=1;jettySize=auto;html=1;entryX=1;entryY=0.25;entryDx=0;entryDy=0;endArrow=none;endFill=0;" parent="1" source="i_KNE7Ls1RVNBL1iF7ar-111" target="i_KNE7Ls1RVNBL1iF7ar-108" edge="1">
          <mxGeometry relative="1" as="geometry" />
        </mxCell>
        <mxCell id="i_KNE7Ls1RVNBL1iF7ar-111" value="WeathertypeID" style="ellipse;whiteSpace=wrap;html=1;align=center;fontStyle=4;" parent="1" vertex="1">
          <mxGeometry x="1387.5" y="1005" width="102.5" height="20" as="geometry" />
        </mxCell>
        <mxCell id="i_KNE7Ls1RVNBL1iF7ar-114" style="edgeStyle=orthogonalEdgeStyle;rounded=0;orthogonalLoop=1;jettySize=auto;html=1;entryX=1;entryY=0.5;entryDx=0;entryDy=0;endArrow=ERmany;endFill=0;" parent="1" source="i_KNE7Ls1RVNBL1iF7ar-113" target="DkOP_ufZZWiYerwZRcUN-9" edge="1">
          <mxGeometry relative="1" as="geometry" />
        </mxCell>
        <mxCell id="i_KNE7Ls1RVNBL1iF7ar-116" style="edgeStyle=orthogonalEdgeStyle;rounded=0;orthogonalLoop=1;jettySize=auto;html=1;entryX=0.5;entryY=1;entryDx=0;entryDy=0;endArrow=ERone;endFill=0;" parent="1" source="i_KNE7Ls1RVNBL1iF7ar-113" target="i_KNE7Ls1RVNBL1iF7ar-108" edge="1">
          <mxGeometry relative="1" as="geometry" />
        </mxCell>
        <mxCell id="i_KNE7Ls1RVNBL1iF7ar-113" value="makes" style="shape=rhombus;perimeter=rhombusPerimeter;whiteSpace=wrap;html=1;align=center;" parent="1" vertex="1">
          <mxGeometry x="1140" y="1007.5" width="60" height="35" as="geometry" />
        </mxCell>
      </root>
    </mxGraphModel>
  </diagram>
</mxfile>
